<svg width="19" height="35" viewBox="0 0 19 35" fill="none" xmlns="http://www.w3.org/2000/svg">
<path d="M14.7136 12.1511H4.57037C3.7703 12.1511 3.003 11.8234 2.43727 11.2402C1.87154 10.657 1.55371 9.86603 1.55371 9.04126V17.6631C1.55513 21.0134 2.49635 24.2918 4.26394 27.1032C6.03153 29.9146 8.55007 32.1391 11.5161 33.5086C12.3143 33.8768 13.1387 34.1813 13.982 34.4195C15.2287 34.7642 16.5099 34.959 17.8001 35V15.371C17.8006 14.9484 17.7203 14.5297 17.5638 14.1391C17.4073 13.7485 17.1776 13.3935 16.8879 13.0944C16.5982 12.7954 16.2541 12.5581 15.8754 12.3962C15.4967 12.2344 15.0907 12.1511 14.6807 12.1511" fill="#6DC629"/>
<path d="M5.13753 30.3777H1.55371V33.5087H7.1637C6.20894 32.6888 5.50516 31.6013 5.13753 30.3777Z" fill="#6DC629"/>
<path d="M2.11248 2.26244C1.71448 2.98907 1.52235 3.81629 1.55795 4.64995C1.59355 5.4836 1.85546 6.29021 2.31387 6.97797C2.87782 7.82237 3.70714 8.4403 4.66181 8.72744C5.61648 9.01458 6.63802 8.95334 7.55397 8.55406C7.65672 8.51169 7.75536 8.46085 7.85399 8.41001L9.49795 10.1725V2.03366C9.10715 1.40899 8.57048 0.895449 7.93714 0.540135C7.30381 0.184821 6.59408 -0.000899289 5.87303 3.27403e-06H0L1.55354 1.66506L2.11248 2.26244ZM8.21977 3.86394C8.35395 4.46338 8.26824 5.0928 7.97913 5.63098C7.69003 6.16916 7.21798 6.57803 6.65391 6.77885C6.57317 6.80787 6.49082 6.83192 6.40731 6.85087C6.23226 6.89362 6.05293 6.91495 5.87303 6.91442C5.42286 6.91199 4.98242 6.7791 4.60203 6.53092C4.22163 6.28274 3.91661 5.92928 3.7218 5.51091C3.52699 5.09253 3.45024 4.62612 3.50032 4.16492C3.5504 3.70372 3.72529 3.26634 4.00502 2.90273C4.28475 2.53912 4.65804 2.26394 5.08225 2.10861C5.50646 1.95328 5.9645 1.92407 6.40405 2.02431C6.8436 2.12456 7.24694 2.35021 7.56801 2.67551C7.88908 3.00081 8.11493 3.41263 8.21977 3.86394Z" fill="#6DC629"/>
<path d="M17.4466 1.66505L19.0001 1.84462e-08H13.1271C12.4056 -6.76381e-05 11.6956 0.185978 11.0617 0.541183C10.4279 0.896389 9.89032 1.40946 9.49805 2.03365V10.1683L11.142 8.40576C11.2406 8.4566 11.3393 8.50744 11.442 8.54981C12.0986 8.83691 12.814 8.95176 13.5242 8.8841C14.2344 8.81643 14.9173 8.56836 15.5117 8.16207C16.1062 7.75578 16.5936 7.20394 16.9306 6.55591C17.2675 5.90788 17.4434 5.18386 17.4425 4.44861C17.4449 3.68069 17.2521 2.92551 16.8835 2.2582L17.4466 1.66505ZM13.1271 1.97857C13.4424 1.97802 13.7548 2.04163 14.0462 2.16578C14.3377 2.28993 14.6025 2.47216 14.8255 2.70203C15.0484 2.9319 15.2252 3.20488 15.3456 3.50533C15.4661 3.80577 15.5278 4.12777 15.5272 4.45285C15.5294 5.01073 15.3451 5.55234 15.0053 5.98656C14.7822 6.28023 14.4971 6.51758 14.1716 6.68056C13.8461 6.84355 13.4889 6.92787 13.1271 6.92713C12.9458 6.92764 12.7651 6.90631 12.5887 6.86357C12.5065 6.84239 12.4243 6.82121 12.3421 6.79155C11.8707 6.62272 11.462 6.30688 11.1726 5.88782C10.8832 5.46876 10.7274 4.96726 10.7269 4.45285C10.7268 4.25434 10.7503 4.05657 10.7968 3.86394C10.9252 3.32659 11.2245 2.84903 11.6468 2.50735C12.0691 2.16567 12.5902 1.97952 13.1271 1.97857Z" fill="#6DC629"/>
</svg>
